<svg xmlns="http://www.w3.org/2000/svg" width="24" height="24"><rect id="backgroundrect" width="100%" height="100%" x="0" y="0" fill="none" stroke="none"/><g class="currentLayer" style=""><title>Layer 1</title><path d="M20,4H6C4.897,4,4,4.897,4,6v5h2V8l6.4,4.8c0.178,0.133,0.389,0.2,0.6,0.2s0.422-0.067,0.6-0.2L20,8v9h-8v2h8 c1.103,0,2-0.897,2-2V6C22,4.897,21.103,4,20,4z M13,10.75L6.666,6h12.668L13,10.75z" id="svg_1" class="" fill="#ffffff" fill-opacity="1"/><path d="M2 12H9V14H2zM4 15H10V17H4zM7 18H11V20H7z" id="svg_2" class="selected" fill="#ffffff" fill-opacity="1"/></g></svg>